<?xml version="1.0" encoding="UTF-8" standalone="no"?>
<!-- Created with Inkscape (http://www.inkscape.org/) -->

<svg
   xmlns:dc="http://purl.org/dc/elements/1.1/"
   xmlns:cc="http://creativecommons.org/ns#"
   xmlns:rdf="http://www.w3.org/1999/02/22-rdf-syntax-ns#"
   xmlns:svg="http://www.w3.org/2000/svg"
   xmlns="http://www.w3.org/2000/svg"
   xmlns:sodipodi="http://sodipodi.sourceforge.net/DTD/sodipodi-0.dtd"
   xmlns:inkscape="http://www.inkscape.org/namespaces/inkscape"
   version="1.1"
   id="svg2"
   width="256"
   height="128"
   viewBox="0 0 256 128"
   sodipodi:docname="achievement.svg"
   inkscape:version="0.92.4 (5da689c313, 2019-01-14)">
  <metadata
     id="metadata8">
    <rdf:RDF>
      <cc:Work
         rdf:about="">
        <dc:format>image/svg+xml</dc:format>
        <dc:type
           rdf:resource="http://purl.org/dc/dcmitype/StillImage" />
        <dc:title></dc:title>
      </cc:Work>
    </rdf:RDF>
  </metadata>
  <defs
     id="defs6" />
  <sodipodi:namedview
     pagecolor="#ffffff"
     bordercolor="#666666"
     borderopacity="1"
     objecttolerance="10"
     gridtolerance="10"
     guidetolerance="10"
     inkscape:pageopacity="0"
     inkscape:pageshadow="2"
     inkscape:window-width="1366"
     inkscape:window-height="707"
     id="namedview4"
     showgrid="false"
     inkscape:zoom="3.9732667"
     inkscape:cx="70.582431"
     inkscape:cy="59.859484"
     inkscape:window-x="0"
     inkscape:window-y="29"
     inkscape:window-maximized="1"
     inkscape:current-layer="svg2" />
  <path
     style="opacity:1;fill:#efefef;fill-opacity:0.74901961;stroke:#000000;stroke-width:10;stroke-linecap:butt;stroke-linejoin:round;stroke-miterlimit:4;stroke-dasharray:none;stroke-opacity:1"
     d="M 62,5 H 251 V 123 H 62 Z"
     id="rect817"
     inkscape:connector-curvature="0"
     sodipodi:nodetypes="ccccc" />
  <circle
     style="opacity:1;fill:#ff6600;fill-opacity:1;stroke:#000000;stroke-width:10;stroke-linecap:butt;stroke-linejoin:round;stroke-miterlimit:4;stroke-dasharray:none;stroke-opacity:1"
     id="path842"
     cx="64"
     cy="64"
     r="59" />
  <path
     transform="matrix(6.2374485,0,0,6.2374458,95.550392,-1233.8694)"
     d="m -5.0957031,200.15234 a 0.86905795,0.86905795 0 0 0 -0.5175781,0.20508 l -0.9746094,0.82617 a 0.86905795,0.86905795 0 0 0 -0.3046875,0.59766 l -0.5917969,0.18555 a 0.86905795,0.86905795 0 0 0 -0.4804688,0.375 l -0.8261718,1.34961 a 0.86905795,0.86905795 0 0 0 -0.1191406,0.58398 0.86905795,0.86905795 0 0 0 -0.6953126,0.0566 l -0.6074222,0.32813 a 0.86905795,0.86905795 0 0 0 -0.457031,0.76953 l 0.03125,4.48437 a 0.86905795,0.86905795 0 0 0 0.628906,0.83008 l 1.384766,0.39648 0.3183594,1.1211 a 0.86905795,0.86905795 0 0 0 0.6074218,0.59961 l 0.5996094,0.16211 -0.890625,0.5625 a 0.86905795,0.86905795 0 0 0 0.1757813,1.55273 l 2.3007812,0.81445 a 0.86905795,0.86905795 0 0 0 0.6308594,-0.0195 l 2.0742187,-0.88867 a 0.86905795,0.86905795 0 0 0 0.109375,-1.54297 l -0.7929687,-0.47851 -0.033203,-0.0918 1.0429687,-0.4668 A 0.86905795,0.86905795 0 0 0 -2,211.91211 l 0.2871094,-0.99805 1.52929685,-0.5957 a 0.86905795,0.86905795 0 0 0 0.5546875,-0.79297 l 0.0898438,-4.34961 a 0.86905795,0.86905795 0 0 0 -0.265625,-0.64258 l -0.64648438,-0.62304 a 0.86905795,0.86905795 0 0 0 -1.08789062,-0.0957 l -0.097656,-0.84375 a 0.86905795,0.86905795 0 0 0 -0.4453124,-0.66211 l -1.078125,-0.59179 a 0.86905795,0.86905795 0 0 0 -0.4121094,-0.81446 l -1.0253906,-0.625 a 0.86905795,0.86905795 0 0 0 -0.4980469,-0.125 z"
     id="path6033-9-0-9"
     style="fill:#000000;fill-opacity:1;stroke:none;stroke-width:0.26458332px;stroke-linecap:butt;stroke-linejoin:miter;stroke-opacity:1"
     inkscape:original="M -5.0507812 201.01953 L -6.0253906 201.8457 L -5.5507812 202.26953 L -7.2246094 202.79492 L -8.0507812 204.14453 L -2.375 204.14453 L -2.5 203.07031 L -4.2753906 202.0957 L -4.0253906 201.64453 L -5.0507812 201.01953 z M -1.0546875 204.53516 L -2.109375 205.2832 L -2.3496094 204.64453 L -5.2011719 204.5957 L -8.0507812 204.64453 L -8.3320312 205.58398 L -9.1933594 205.0957 L -9.8007812 205.42383 L -9.7695312 209.9082 L -7.921875 210.43945 L -7.4707031 212.02344 L -5.8261719 212.4707 L -6.4003906 213.60938 L -7.5253906 214.32031 L -5.2246094 215.13477 L -3.1503906 214.24609 L -4.2011719 213.60938 L -4.625 212.4707 L -2.8359375 211.67188 L -2.4296875 210.25977 L -0.49804688 209.50781 L -0.40820312 205.1582 L -1.0546875 204.53516 z M -1.9375 205.76953 L -1.2050781 205.97266 L -1.0996094 208.87109 L -2.4648438 209.37109 L -2.25 208.3457 L -1.59375 206.64648 L -1.9375 205.76953 z M -8.4921875 206.13477 L -8.6035156 206.49023 L -8.1503906 208.3457 L -7.9824219 209.57617 L -9.1679688 209.27148 L -9.0625 206.37305 L -8.4921875 206.13477 z "
     inkscape:radius="0.86897105"
     sodipodi:type="inkscape:offset" />
  <path
     sodipodi:nodetypes="ccccccccccccccccccccccccccccccccccccccccccccccc"
     inkscape:connector-curvature="0"
     id="path6033-6-6"
     d="m 64.05058,19.982828 -6.082317,5.144478 2.962222,2.652805 -10.446729,3.274899 -5.147564,8.419104 h 35.398193 l -0.776817,-6.70443 -11.075269,-6.082427 1.560116,-2.807436 z m 24.925719,21.921803 -6.585174,4.664015 -1.498804,-3.974447 -17.779653,0.238951 -17.776476,-0.238951 -1.753482,5.856752 -5.379676,-3.042815 -3.780888,2.040506 0.196479,27.971639 11.518874,3.315366 2.812105,9.877889 10.26596,2.791048 -3.587539,7.097554 -7.017126,4.441732 14.350123,5.07994 12.94146,-5.54722 -6.55293,-3.974452 -2.646305,-7.097554 11.158554,-4.986552 2.532524,-8.802339 12.05014,-4.693586 0.554502,-27.133482 z m -5.508589,7.703535 4.567428,1.260302 0.660738,18.085876 -8.524159,3.121001 1.342671,-6.40231 4.090397,-10.595015 z m -40.880992,2.278908 -0.696234,2.220863 2.823641,11.565098 1.04651,7.673964 -7.393174,-1.894665 0.66072,-18.085783 z"
     style="fill:#ffd42a;stroke:none;stroke-width:1.65032434px;stroke-linecap:butt;stroke-linejoin:miter;stroke-opacity:1" />
  <path
     sodipodi:nodetypes="ccccc"
     inkscape:connector-curvature="0"
     id="path6090-4-0"
     d="m 80.394444,77.615693 -5.69541,5.960754 -10.23334,8.875123 13.396226,-6.033538 z"
     style="fill:#947600;fill-opacity:1;stroke:none;stroke-width:1.65032434px;stroke-linecap:butt;stroke-linejoin:miter;stroke-opacity:1" />
  <path
     inkscape:connector-curvature="0"
     id="path6092-6-2"
     d="m 45.336192,39.474114 30.197712,-3.551569 5.200481,3.551569 z"
     style="fill:#947600;fill-opacity:1;stroke:none;stroke-width:1.65032434px;stroke-linecap:butt;stroke-linejoin:miter;stroke-opacity:1"
     sodipodi:nodetypes="cccc" />
  <path
     inkscape:connector-curvature="0"
     id="path6094-2-7"
     d="m 75.533904,35.922545 4.423664,-3.152861 0.776817,6.70443 z"
     style="fill:#947600;fill-opacity:1;stroke:none;stroke-width:1.65032434px;stroke-linecap:butt;stroke-linejoin:miter;stroke-opacity:1"
     sodipodi:nodetypes="cccc" />
  <path
     inkscape:connector-curvature="0"
     id="path6096-5-6"
     d="m 81.185543,77.276311 8.576921,-5.535955 2.68212,1.181751 z"
     style="fill:#947600;fill-opacity:1;stroke:none;stroke-width:1.65032434px;stroke-linecap:butt;stroke-linejoin:miter;stroke-opacity:1"
     sodipodi:nodetypes="cccc" />
  <path
     inkscape:connector-curvature="0"
     id="path6098-8-1"
     d="m 69.349671,98.502138 -6.388512,9.521672 12.941442,-5.54722 z"
     style="fill:#947600;fill-opacity:1;stroke:none;stroke-width:1.65032434px;stroke-linecap:butt;stroke-linejoin:miter;stroke-opacity:1" />
  <path
     inkscape:connector-curvature="0"
     id="path6102-6-3"
     d="m 70.442415,23.879821 -2.679858,4.721967 -0.602548,-3.202299 z"
     style="fill:#947600;fill-opacity:1;stroke:none;stroke-width:1.65032434px;stroke-linecap:butt;stroke-linejoin:miter;stroke-opacity:1"
     sodipodi:nodetypes="cccc" />
  <path
     inkscape:connector-curvature="0"
     id="path6104-2-2"
     d="m 38.367461,71.452334 -1.039223,-19.252886 1.699943,1.167103 z"
     style="fill:#947600;fill-opacity:1;stroke:none;stroke-width:1.65032434px;stroke-linecap:butt;stroke-linejoin:miter;stroke-opacity:1" />
  <path
     inkscape:connector-curvature="0"
     id="path6106-8-1"
     d="m 37.328238,52.199448 5.25848,-0.312558 -3.558537,1.479661 z"
     style="fill:#947600;fill-opacity:1;stroke:none;stroke-width:1.65032434px;stroke-linecap:butt;stroke-linejoin:miter;stroke-opacity:1" />
  <path
     inkscape:connector-curvature="0"
     id="path6108-4-5"
     d="m 60.930485,27.780111 0.518348,-2.441595 -3.480131,-0.211393 z"
     style="fill:#ffeeaa;fill-opacity:1;stroke:none;stroke-width:1.65032434px;stroke-linecap:butt;stroke-linejoin:miter;stroke-opacity:1"
     sodipodi:nodetypes="cccc" />
  <path
     inkscape:connector-curvature="0"
     id="path6110-7-9"
     d="m 61.448641,25.338516 2.601939,-5.355688 -6.082317,5.144295 z"
     style="fill:#ffeeaa;fill-opacity:1;stroke:none;stroke-width:1.65032434px;stroke-linecap:butt;stroke-linejoin:miter;stroke-opacity:1"
     sodipodi:nodetypes="cccc" />
  <path
     sodipodi:nodetypes="ccccc"
     inkscape:connector-curvature="0"
     id="path6112-2-9"
     d="m 43.057211,50.531924 2.278981,-7.937725 h 35.556129 l -30.775257,3.893424 z"
     style="fill:#ffeeaa;fill-opacity:1;stroke:none;stroke-width:1.65032434px;stroke-linecap:butt;stroke-linejoin:miter;stroke-opacity:1" />
  <path
     inkscape:connector-curvature="0"
     id="path6114-4-1"
     d="m 38.203034,45.408136 -1.922313,3.428065 -1.858575,-1.387559 z"
     style="fill:#ffeeaa;fill-opacity:1;stroke:none;stroke-width:1.65032434px;stroke-linecap:butt;stroke-linejoin:miter;stroke-opacity:1" />
  <path
     inkscape:connector-curvature="0"
     id="path6116-0-4"
     d="M 36.280721,48.836201 34.618744,75.420281 34.422265,47.448642 Z"
     style="fill:#ffeeaa;fill-opacity:1;stroke:none;stroke-width:1.65032434px;stroke-linecap:butt;stroke-linejoin:miter;stroke-opacity:1" />
  <path
     inkscape:connector-curvature="0"
     id="path6118-6-9"
     d="M 89.762464,71.740356 92.998967,45.788625 92.444465,72.922107 Z"
     style="fill:#947600;fill-opacity:1;stroke:none;stroke-width:1.65032434px;stroke-linecap:butt;stroke-linejoin:miter;stroke-opacity:1" />
  <path
     inkscape:connector-curvature="0"
     id="path6120-2-1"
     d="m 82.391125,46.568646 6.591601,-2.1186 -0.0064,-2.545415 z"
     style="fill:#ffeeaa;fill-opacity:1;stroke:none;stroke-width:1.65032434px;stroke-linecap:butt;stroke-linejoin:miter;stroke-opacity:1" />
  <path
     inkscape:connector-curvature="0"
     id="path6122-9-0"
     d="m 79.671597,74.36359 1.842791,-8.690555 -3.709597,1.150623 z"
     style="fill:#947600;fill-opacity:1;stroke:none;stroke-width:1.65032434px;stroke-linecap:butt;stroke-linejoin:miter;stroke-opacity:1"
     sodipodi:nodetypes="cccc" />
  <path
     inkscape:connector-curvature="0"
     id="path6124-9-7"
     d="M 77.804791,66.823658 85.604785,55.07802 81.514388,65.673035 Z"
     style="fill:#947600;fill-opacity:1;stroke:none;stroke-width:1.65032434px;stroke-linecap:butt;stroke-linejoin:miter;stroke-opacity:1"
     sodipodi:nodetypes="cccc" />
</svg>
