<?xml version="1.0" encoding="UTF-8" standalone="no"?>
<!-- Created with Inkscape (http://www.inkscape.org/) -->

<svg
   xmlns:dc="http://purl.org/dc/elements/1.1/"
   xmlns:cc="http://creativecommons.org/ns#"
   xmlns:rdf="http://www.w3.org/1999/02/22-rdf-syntax-ns#"
   xmlns:svg="http://www.w3.org/2000/svg"
   xmlns="http://www.w3.org/2000/svg"
   xmlns:sodipodi="http://sodipodi.sourceforge.net/DTD/sodipodi-0.dtd"
   xmlns:inkscape="http://www.inkscape.org/namespaces/inkscape"
   version="1.1"
   id="svg2"
   width="256"
   height="128"
   viewBox="0 0 256 128"
   sodipodi:docname="friend.svg"
   inkscape:version="0.92.4 (5da689c313, 2019-01-14)">
  <metadata
     id="metadata8">
    <rdf:RDF>
      <cc:Work
         rdf:about="">
        <dc:format>image/svg+xml</dc:format>
        <dc:type
           rdf:resource="http://purl.org/dc/dcmitype/StillImage" />
        <dc:title></dc:title>
      </cc:Work>
    </rdf:RDF>
  </metadata>
  <defs
     id="defs6" />
  <sodipodi:namedview
     pagecolor="#ffffff"
     bordercolor="#666666"
     borderopacity="1"
     objecttolerance="10"
     gridtolerance="10"
     guidetolerance="10"
     inkscape:pageopacity="0"
     inkscape:pageshadow="2"
     inkscape:window-width="1366"
     inkscape:window-height="707"
     id="namedview4"
     showgrid="false"
     inkscape:zoom="3.9732667"
     inkscape:cx="72.038334"
     inkscape:cy="63.655671"
     inkscape:window-x="0"
     inkscape:window-y="29"
     inkscape:window-maximized="1"
     inkscape:current-layer="svg2" />
  <path
     style="opacity:1;fill:#efefef;fill-opacity:0.74901961;stroke:#000000;stroke-width:10;stroke-linecap:butt;stroke-linejoin:round;stroke-miterlimit:4;stroke-dasharray:none;stroke-opacity:1"
     d="M 62,5 H 251 V 123 H 62 Z"
     id="rect817"
     inkscape:connector-curvature="0"
     sodipodi:nodetypes="ccccc" />
  <circle
     style="opacity:1;fill:#ff6600;fill-opacity:1;stroke:#000000;stroke-width:10;stroke-linecap:butt;stroke-linejoin:round;stroke-miterlimit:4;stroke-dasharray:none;stroke-opacity:1"
     id="path842"
     cx="64"
     cy="64"
     r="59" />
  <path
     sodipodi:type="inkscape:offset"
     inkscape:radius="7.3678827"
     inkscape:original="M 64.826172 22.90625 L 44.228516 23.935547 L 31.525391 41.443359 L 32.462891 64.488281 L 35.875 69.076172 L 32.539062 69.662109 L 15.626953 81.859375 L 10.082031 99.605469 L 30.091797 105.29883 L 78.859375 105.72656 L 103.51562 99.328125 L 92.425781 78.533203 L 79.117188 70.216797 L 71.085938 68.935547 L 79.150391 56.9375 L 76.839844 39.726562 L 64.826172 22.90625 z "
     style="fill:#000000;stroke:none;stroke-width:1.1090076px;stroke-linecap:butt;stroke-linejoin:miter;stroke-opacity:1"
     id="path4544-3"
     d="m 64.458984,15.546875 -20.597656,1.029297 a 7.3686195,7.3686195 0 0 0 -5.595703,3.033203 L 25.5625,37.117188 a 7.3686195,7.3686195 0 0 0 -1.398438,4.625 l 0.9375,23.044921 a 7.3686195,7.3686195 0 0 0 0.128907,1.060547 L 11.316406,75.882812 A 7.3686195,7.3686195 0 0 0 8.59375,79.662109 L 3.0488281,97.408203 a 7.3686195,7.3686195 0 0 0 5.0175781,9.283207 l 20.0097658,5.69336 a 7.3686195,7.3686195 0 0 0 1.951172,0.28125 l 48.767578,0.42773 a 7.3686195,7.3686195 0 0 0 1.916016,-0.23633 l 24.656252,-6.39844 a 7.3686195,7.3686195 0 0 0 4.65039,-10.597652 L 98.927734,75.066406 a 7.3686195,7.3686195 0 0 0 -2.597656,-2.78125 L 83.21875,64.091797 85.265625,61.046875 a 7.3686195,7.3686195 0 0 0 1.1875,-5.089844 L 84.142578,38.746094 a 7.3686195,7.3686195 0 0 0 -1.30664,-3.302735 L 70.822266,18.623047 a 7.3686195,7.3686195 0 0 0 -6.363282,-3.076172 z"
     transform="matrix(0.7268722,0,0,0.7268722,23.358935,16.538176)" />
  <path
     style="fill:#c83737;stroke:none;stroke-width:0.80610681px;stroke-linecap:butt;stroke-linejoin:miter;stroke-opacity:1"
     d="m 30.687069,88.938491 4.030498,-12.897844 12.293112,-8.867003 14.912936,-2.619959 18.943521,3.022985 9.673192,6.045824 8.061077,15.114411 -17.922106,4.651296 -35.448269,-0.310409 z"
     id="path4544"
     inkscape:connector-curvature="0"
     sodipodi:nodetypes="cccccccccc" />
  <path
     style="fill:#a02c2c;stroke:none;stroke-width:0.85585541px;stroke-linecap:butt;stroke-linejoin:miter;stroke-opacity:1"
     d="m 45.23103,93.077792 34.530697,-4.515781 0.917572,4.82619 z"
     id="path4693"
     inkscape:connector-curvature="0"
     sodipodi:nodetypes="cccc" />
  <path
     style="fill:#ffccaa;stroke:none;stroke-width:1.41152811px;stroke-linecap:butt;stroke-linejoin:miter;stroke-opacity:1"
     d="m 46.273881,46.662166 9.232673,-12.725589 14.971645,-0.74856 8.733151,12.226721 1.679406,12.509485 -10.230573,15.221181 H 54.1915 l -7.236112,-9.731498 z"
     id="path4546"
     inkscape:connector-curvature="0"
     sodipodi:nodetypes="ccccccccc" />
  <path
     style="fill:#ffdbc2;fill-opacity:1;stroke:none;stroke-width:0.85585541px;stroke-linecap:butt;stroke-linejoin:miter;stroke-opacity:1"
     d="m 46.955388,63.413906 2.313524,-15.963215 7.413375,-10.13687 -1.175733,-3.377244 -9.232673,12.725589 z"
     id="path4677"
     inkscape:connector-curvature="0" />
  <path
     style="fill:#ffe6d5;stroke:none;stroke-width:0.85585541px;stroke-linecap:butt;stroke-linejoin:miter;stroke-opacity:1"
     d="m 56.682287,37.313821 13.795912,-4.125804 -14.971645,0.74856 z"
     id="path4679"
     inkscape:connector-curvature="0" />
  <path
     style="fill:#ff9955;stroke:none;stroke-width:0.85585541px;stroke-linecap:butt;stroke-linejoin:miter;stroke-opacity:1"
     d="m 54.1915,73.145404 13.384079,-3.303108 3.084604,3.303108 z"
     id="path4681"
     inkscape:connector-curvature="0" />
  <path
     style="fill:#ffb380;stroke:none;stroke-width:0.85585541px;stroke-linecap:butt;stroke-linejoin:miter;stroke-opacity:1"
     d="M 67.575579,69.842296 77.409806,56.982217 79.21135,45.414738 80.890756,57.924223 70.660183,73.145404 Z"
     id="path4687"
     inkscape:connector-curvature="0" />
  <path
     style="fill:#de8787;stroke:none;stroke-width:0.85585541px;stroke-linecap:butt;stroke-linejoin:miter;stroke-opacity:1"
     d="m 30.687069,88.938491 4.030498,-12.897844 2.654271,2.251619 z"
     id="path4689"
     inkscape:connector-curvature="0" />
  <path
     style="fill:#d35f5f;stroke:none;stroke-width:0.85585541px;stroke-linecap:butt;stroke-linejoin:miter;stroke-opacity:1"
     d="M 37.371838,78.292266 47.010679,67.173644 34.717567,76.040647 Z"
     id="path4691"
     inkscape:connector-curvature="0" />
  <path
     style="fill:#782121;stroke:none;stroke-width:0.85585541px;stroke-linecap:butt;stroke-linejoin:miter;stroke-opacity:1"
     d="m 79.761727,88.562011 18.839678,0.174894 -17.922106,4.651296 z"
     id="path4697"
     inkscape:connector-curvature="0" />
</svg>
