<?xml version="1.0" encoding="UTF-8" standalone="no"?>
<svg
   xmlns:dc="http://purl.org/dc/elements/1.1/"
   xmlns:cc="http://creativecommons.org/ns#"
   xmlns:rdf="http://www.w3.org/1999/02/22-rdf-syntax-ns#"
   xmlns:svg="http://www.w3.org/2000/svg"
   xmlns="http://www.w3.org/2000/svg"
   xmlns:sodipodi="http://sodipodi.sourceforge.net/DTD/sodipodi-0.dtd"
   xmlns:inkscape="http://www.inkscape.org/namespaces/inkscape"
   inkscape:version="1.0 (4035a4fb49, 2020-05-01)"
   sodipodi:docname="accelerator.svg"
   viewBox="0 0 256 512"
   height="512"
   width="256"
   id="svg2"
   version="1.1">
  <metadata
     id="metadata8">
    <rdf:RDF>
      <cc:Work
         rdf:about="">
        <dc:format>image/svg+xml</dc:format>
        <dc:type
           rdf:resource="http://purl.org/dc/dcmitype/StillImage" />
        <dc:title />
      </cc:Work>
    </rdf:RDF>
  </metadata>
  <defs
     id="defs6" />
  <sodipodi:namedview
     inkscape:document-rotation="0"
     inkscape:current-layer="svg2"
     inkscape:window-maximized="1"
     inkscape:window-y="27"
     inkscape:window-x="0"
     inkscape:cy="218.77052"
     inkscape:cx="-127.96158"
     inkscape:zoom="0.69260556"
     showgrid="false"
     id="namedview4"
     inkscape:window-height="1016"
     inkscape:window-width="1920"
     inkscape:pageshadow="2"
     inkscape:pageopacity="0"
     guidetolerance="10"
     gridtolerance="10"
     objecttolerance="10"
     borderopacity="1"
     bordercolor="#666666"
     pagecolor="#ffffff" />
  <path
     sodipodi:nodetypes="ccccc"
     inkscape:connector-curvature="0"
     id="path8897"
     d="M 8,8 V 504 H 248 V 8 Z"
     style="fill:#4d4d4d;stroke:#000000;stroke-width:16;stroke-linecap:butt;stroke-linejoin:round;stroke-miterlimit:4;stroke-dasharray:none;stroke-opacity:1;paint-order:stroke fill markers" />
  <g
     style="font-style:normal;font-variant:normal;font-weight:900;font-stretch:normal;font-size:114.37px;line-height:21.4443px;font-family:'Inter UI';-inkscape-font-specification:'Inter UI Heavy';font-variant-ligatures:normal;font-variant-caps:normal;font-variant-numeric:normal;font-feature-settings:normal;text-align:center;letter-spacing:0px;word-spacing:0px;writing-mode:lr-tb;text-anchor:middle;fill:#bf2828;fill-opacity:1;stroke:#000000;stroke-width:16;stroke-linecap:butt;stroke-linejoin:round;stroke-miterlimit:4;stroke-dasharray:none;stroke-opacity:1;paint-order:stroke fill markers"
     id="text858"
     aria-label="R">
    <path
       id="path47"
       style="fill:#bf2828;fill-opacity:1;stroke:#000000;stroke-width:16;stroke-linejoin:round;stroke-miterlimit:4;stroke-dasharray:none;stroke-opacity:1;paint-order:stroke fill markers"
       d="m 179.68621,431.18202 q 6.75721,0 9.66114,-2.51301 2.95977,-2.51302 2.95977,-8.26502 0,-5.69616 -2.95977,-8.15333 -2.90393,-2.45717 -9.66114,-2.45717 h -9.04684 v 21.38853 z m -9.04684,14.8547 v 31.55227 h -21.50022 v -83.37618 h 32.8367 q 16.47419,0 24.12492,5.52863 7.70657,5.52863 7.70657,17.4794 0,8.26502 -4.02082,13.57027 -3.96498,5.30525 -12.00662,7.81826 4.41174,1.0052 7.87411,4.57927 3.51822,3.51821 7.09228,10.72218 l 11.67155,23.67817 H 201.5215 L 191.35776,456.8706 q -3.07146,-6.25461 -6.25461,-8.54425 -3.1273,-2.28963 -8.37671,-2.28963 z" />
  </g>
  <g
     style="font-style:normal;font-variant:normal;font-weight:900;font-stretch:normal;font-size:114.37px;line-height:21.4443px;font-family:'Inter UI';-inkscape-font-specification:'Inter UI Heavy';font-variant-ligatures:normal;font-variant-caps:normal;font-variant-numeric:normal;font-feature-settings:normal;text-align:center;letter-spacing:0px;word-spacing:0px;writing-mode:lr-tb;text-anchor:middle;fill:#757575;fill-opacity:1;stroke:#000000;stroke-width:16;stroke-linecap:butt;stroke-linejoin:round;stroke-miterlimit:4;stroke-dasharray:none;stroke-opacity:1;paint-order:stroke fill markers"
     id="text858-5"
     aria-label="N">
    <path
       id="path41"
       style="fill:#757575;fill-opacity:1;stroke:#000000;stroke-width:16;stroke-linejoin:round;stroke-miterlimit:4;stroke-dasharray:none;stroke-opacity:1;paint-order:stroke fill markers"
       d="m 148.44107,214.21281 h 24.01323 l 30.32369,57.185 v -57.185 h 20.38333 v 83.37618 h -24.01324 l -30.32368,-57.185 v 57.185 h -20.38333 z" />
  </g>
  <g
     style="font-style:normal;font-variant:normal;font-weight:900;font-stretch:normal;font-size:114.37px;line-height:21.4443px;font-family:'Inter UI';-inkscape-font-specification:'Inter UI Heavy';font-variant-ligatures:normal;font-variant-caps:normal;font-variant-numeric:normal;font-feature-settings:normal;text-align:center;letter-spacing:0px;word-spacing:0px;writing-mode:lr-tb;text-anchor:middle;fill:#bf2828;fill-opacity:1;stroke:none;stroke-width:16;stroke-linecap:butt;stroke-linejoin:round;stroke-miterlimit:4;stroke-dasharray:none;stroke-opacity:1;paint-order:stroke fill markers"
     id="text858-3"
     aria-label="R">
    <path
       id="path44"
       style="fill:#bf2828;fill-opacity:1;stroke:none;stroke-width:16;stroke-linejoin:round;stroke-miterlimit:4;stroke-dasharray:none;stroke-opacity:1;paint-order:stroke fill markers"
       d="m 179.68621,431.18202 q 6.75721,0 9.66114,-2.51301 2.95977,-2.51302 2.95977,-8.26502 0,-5.69616 -2.95977,-8.15333 -2.90393,-2.45717 -9.66114,-2.45717 h -9.04684 v 21.38853 z m -9.04684,14.8547 v 31.55227 h -21.50022 v -83.37618 h 32.8367 q 16.47419,0 24.12492,5.52863 7.70657,5.52863 7.70657,17.4794 0,8.26502 -4.02082,13.57027 -3.96498,5.30525 -12.00662,7.81826 4.41174,1.0052 7.87411,4.57927 3.51822,3.51821 7.09228,10.72218 l 11.67155,23.67817 H 201.5215 L 191.35776,456.8706 q -3.07146,-6.25461 -6.25461,-8.54425 -3.1273,-2.28963 -8.37671,-2.28963 z" />
  </g>
  <g
     style="font-style:normal;font-variant:normal;font-weight:900;font-stretch:normal;font-size:114.37px;line-height:21.4443px;font-family:'Inter UI';-inkscape-font-specification:'Inter UI Heavy';font-variant-ligatures:normal;font-variant-caps:normal;font-variant-numeric:normal;font-feature-settings:normal;text-align:center;letter-spacing:0px;word-spacing:0px;writing-mode:lr-tb;text-anchor:middle;fill:#757575;fill-opacity:1;stroke:none;stroke-width:16;stroke-linecap:butt;stroke-linejoin:round;stroke-miterlimit:4;stroke-dasharray:none;stroke-opacity:1;paint-order:stroke fill markers"
     id="text858-5-5"
     aria-label="N">
    <path
       id="path38"
       style="fill:#757575;fill-opacity:1;stroke:none;stroke-width:16;stroke-linejoin:round;stroke-miterlimit:4;stroke-dasharray:none;stroke-opacity:1;paint-order:stroke fill markers"
       d="m 148.44107,214.21281 h 24.01323 l 30.32369,57.185 v -57.185 h 20.38333 v 83.37618 h -24.01324 l -30.32368,-57.185 v 57.185 h -20.38333 z" />
  </g>
  <path
     sodipodi:nodetypes="cccc"
     inkscape:connector-curvature="0"
     id="path8902"
     d="M 8,504 21.69969,21.992597 8,8 Z"
     style="fill:#666666;stroke:none;stroke-width:7.2702446px;stroke-linecap:butt;stroke-linejoin:miter;stroke-opacity:1" />
  <path
     sodipodi:nodetypes="cccc"
     inkscape:connector-curvature="0"
     id="path8904"
     d="M 21.69969,21.992597 248,8 H 8 Z"
     style="fill:#808080;stroke:none;stroke-width:7.2702446px;stroke-linecap:butt;stroke-linejoin:miter;stroke-opacity:1" />
  <path
     sodipodi:nodetypes="cccc"
     inkscape:connector-curvature="0"
     id="path8906"
     d="M 248,8 230.70997,486.93461 248,504 Z"
     style="fill:#1a1a1a;stroke:none;stroke-width:7.2702446px;stroke-linecap:butt;stroke-linejoin:miter;stroke-opacity:1" />
  <path
     sodipodi:nodetypes="cccc"
     inkscape:connector-curvature="0"
     id="path8908"
     d="M 230.70997,486.93461 8,504 h 240 z"
     style="fill:#333333;stroke:none;stroke-width:7.2702446px;stroke-linecap:butt;stroke-linejoin:miter;stroke-opacity:1" />
  <path
     sodipodi:nodetypes="ccccc"
     inkscape:connector-curvature="0"
     id="rect817"
     d="M 32,32 H 90 V 479 H 32 Z"
     style="opacity:1;fill:#d8d8d8;fill-opacity:1;stroke:#000000;stroke-width:16;stroke-linecap:butt;stroke-linejoin:round;stroke-miterlimit:4;stroke-dasharray:none;stroke-opacity:1;paint-order:markers stroke fill" />
  <g
     style="font-style:normal;font-variant:normal;font-weight:900;font-stretch:normal;font-size:114.37px;line-height:21.4443px;font-family:'Inter UI';-inkscape-font-specification:'Inter UI Heavy';font-variant-ligatures:normal;font-variant-caps:normal;font-variant-numeric:normal;font-feature-settings:normal;text-align:center;letter-spacing:0px;word-spacing:0px;writing-mode:lr-tb;text-anchor:middle;fill:#43a743;fill-opacity:1;stroke:#000000;stroke-width:16;stroke-linecap:butt;stroke-linejoin:round;stroke-miterlimit:4;stroke-dasharray:none;stroke-opacity:1;paint-order:stroke fill markers"
     id="text858-8"
     aria-label="D">
    <path
       id="path32"
       style="fill:#43a743;fill-opacity:1;stroke:#000000;stroke-width:16;stroke-linejoin:round;stroke-miterlimit:4;stroke-dasharray:none;stroke-opacity:1;paint-order:stroke fill markers"
       d="m 170.4439,50.463626 v 50.874544 h 7.70657 q 13.17936,0 20.1041,-6.53383 6.98059,-6.533833 6.98059,-18.987207 0,-12.39753 -6.92474,-18.875518 -6.92475,-6.477989 -20.15995,-6.477989 z M 148.94368,34.21281 h 22.67296 q 18.9872,0 28.25743,2.736392 9.32607,2.680547 15.97159,9.158536 5.8637,5.640317 8.71178,13.011821 2.84808,7.371504 2.84808,16.697574 0,9.437759 -2.84808,16.865108 -2.84808,7.371499 -8.71178,13.011819 -6.70137,6.47799 -16.08328,9.21438 -9.38191,2.68055 -28.14574,2.68055 h -22.67296 z" />
  </g>
  <g
     style="font-style:normal;font-variant:normal;font-weight:900;font-stretch:normal;font-size:114.37px;line-height:21.4443px;font-family:'Inter UI';-inkscape-font-specification:'Inter UI Heavy';font-variant-ligatures:normal;font-variant-caps:normal;font-variant-numeric:normal;font-feature-settings:normal;text-align:center;letter-spacing:0px;word-spacing:0px;writing-mode:lr-tb;text-anchor:middle;fill:#43a743;fill-opacity:1;stroke:none;stroke-width:16;stroke-linecap:butt;stroke-linejoin:round;stroke-miterlimit:4;stroke-dasharray:none;stroke-opacity:1;paint-order:stroke fill markers"
     id="text858-8-1"
     aria-label="D">
    <path
       id="path35"
       style="fill:#43a743;fill-opacity:1;stroke:none;stroke-width:16;stroke-linejoin:round;stroke-miterlimit:4;stroke-dasharray:none;stroke-opacity:1;paint-order:stroke fill markers"
       d="m 170.4439,50.463626 v 50.874544 h 7.70657 q 13.17936,0 20.1041,-6.53383 6.98059,-6.533833 6.98059,-18.987207 0,-12.39753 -6.92474,-18.875518 -6.92475,-6.477989 -20.15995,-6.477989 z M 148.94368,34.21281 h 22.67296 q 18.9872,0 28.25743,2.736392 9.32607,2.680547 15.97159,9.158536 5.8637,5.640317 8.71178,13.011821 2.84808,7.371504 2.84808,16.697574 0,9.437759 -2.84808,16.865108 -2.84808,7.371499 -8.71178,13.011819 -6.70137,6.47799 -16.08328,9.21438 -9.38191,2.68055 -28.14574,2.68055 h -22.67296 z" />
  </g>
</svg>
