<?xml version="1.0" encoding="UTF-8" standalone="no"?>
<svg
   xmlns:dc="http://purl.org/dc/elements/1.1/"
   xmlns:cc="http://creativecommons.org/ns#"
   xmlns:rdf="http://www.w3.org/1999/02/22-rdf-syntax-ns#"
   xmlns:svg="http://www.w3.org/2000/svg"
   xmlns="http://www.w3.org/2000/svg"
   xmlns:sodipodi="http://sodipodi.sourceforge.net/DTD/sodipodi-0.dtd"
   xmlns:inkscape="http://www.inkscape.org/namespaces/inkscape"
   inkscape:version="1.0 (4035a4fb49, 2020-05-01)"
   sodipodi:docname="gyroscope_icon.svg"
   viewBox="0 0 512 512"
   height="512"
   width="512"
   id="svg2"
   version="1.1">
  <metadata
     id="metadata8">
    <rdf:RDF>
      <cc:Work
         rdf:about="">
        <dc:format>image/svg+xml</dc:format>
        <dc:type
           rdf:resource="http://purl.org/dc/dcmitype/StillImage" />
        <dc:title />
      </cc:Work>
    </rdf:RDF>
  </metadata>
  <defs
     id="defs6" />
  <sodipodi:namedview
     inkscape:document-rotation="0"
     inkscape:current-layer="svg2"
     inkscape:window-maximized="0"
     inkscape:window-y="279"
     inkscape:window-x="360"
     inkscape:cy="299.87286"
     inkscape:cx="221.05653"
     inkscape:zoom="0.69260555"
     showgrid="false"
     id="namedview4"
     inkscape:window-height="752"
     inkscape:window-width="1517"
     inkscape:pageshadow="2"
     inkscape:pageopacity="0"
     guidetolerance="10"
     gridtolerance="10"
     objecttolerance="10"
     borderopacity="1"
     bordercolor="#666666"
     pagecolor="#ffffff" />
  <path
     sodipodi:nodetypes="ccccc"
     inkscape:connector-curvature="0"
     id="path8897"
     d="M 136,8 V 504 H 376 V 8 Z"
     style="fill:#4d4d4d;stroke:#000000;stroke-width:16;stroke-linecap:butt;stroke-linejoin:round;stroke-miterlimit:4;stroke-dasharray:none;stroke-opacity:1;paint-order:stroke fill markers" />
  <g
     style="font-style:normal;font-variant:normal;font-weight:900;font-stretch:normal;font-size:114.37px;line-height:21.4443px;font-family:'Inter UI';-inkscape-font-specification:'Inter UI Heavy';font-variant-ligatures:normal;font-variant-caps:normal;font-variant-numeric:normal;font-feature-settings:normal;text-align:center;letter-spacing:0px;word-spacing:0px;writing-mode:lr-tb;text-anchor:middle;fill:#bf2828;fill-opacity:1;stroke:#000000;stroke-width:16;stroke-linecap:butt;stroke-linejoin:round;stroke-miterlimit:4;stroke-dasharray:none;stroke-opacity:1;paint-order:stroke fill markers"
     id="text858"
     aria-label="R">
    <path
       id="path144"
       style="fill:#bf2828;fill-opacity:1;stroke:#000000;stroke-width:16;stroke-linejoin:round;stroke-miterlimit:4;stroke-dasharray:none;stroke-opacity:1;paint-order:stroke fill markers"
       d="m 307.6862,431.18215 q 6.7572,0 9.66112,-2.51301 2.95976,-2.513 2.95976,-8.26499 0,-5.69615 -2.95976,-8.15331 -2.90392,-2.45716 -9.66112,-2.45716 h -9.04682 v 21.38847 z m -9.04682,14.85466 v 31.55218 h -21.50016 v -83.37595 h 32.83661 q 16.47415,0 24.12486,5.52862 7.70655,5.52861 7.70655,17.47935 0,8.26499 -4.02081,13.57023 -3.96497,5.30523 -12.00658,7.81824 4.41172,1.0052 7.87408,4.57925 3.51821,3.51821 7.09226,10.72216 l 11.67152,23.6781 h -22.89628 l -10.16371,-20.71834 q -3.07145,-6.25459 -6.25459,-8.54422 -3.1273,-2.28962 -8.37669,-2.28962 z" />
  </g>
  <g
     style="font-style:normal;font-variant:normal;font-weight:900;font-stretch:normal;font-size:114.37px;line-height:21.4443px;font-family:'Inter UI';-inkscape-font-specification:'Inter UI Heavy';font-variant-ligatures:normal;font-variant-caps:normal;font-variant-numeric:normal;font-feature-settings:normal;text-align:center;letter-spacing:0px;word-spacing:0px;writing-mode:lr-tb;text-anchor:middle;fill:#757575;fill-opacity:1;stroke:#000000;stroke-width:16;stroke-linecap:butt;stroke-linejoin:round;stroke-miterlimit:4;stroke-dasharray:none;stroke-opacity:1;paint-order:stroke fill markers"
     id="text858-5"
     aria-label="N">
    <path
       id="path138"
       style="fill:#757575;fill-opacity:1;stroke:#000000;stroke-width:16;stroke-linejoin:round;stroke-miterlimit:4;stroke-dasharray:none;stroke-opacity:1;paint-order:stroke fill markers"
       d="m 276.44119,214.21304 h 24.01317 l 30.3236,57.18485 v -57.18485 h 20.38327 v 83.37595 h -24.01317 l -30.3236,-57.18484 v 57.18484 h -20.38327 z" />
  </g>
  <g
     style="font-style:normal;font-variant:normal;font-weight:900;font-stretch:normal;font-size:114.37px;line-height:21.4443px;font-family:'Inter UI';-inkscape-font-specification:'Inter UI Heavy';font-variant-ligatures:normal;font-variant-caps:normal;font-variant-numeric:normal;font-feature-settings:normal;text-align:center;letter-spacing:0px;word-spacing:0px;writing-mode:lr-tb;text-anchor:middle;fill:#bf2828;fill-opacity:1;stroke:none;stroke-width:16;stroke-linecap:butt;stroke-linejoin:round;stroke-miterlimit:4;stroke-dasharray:none;stroke-opacity:1;paint-order:stroke fill markers"
     id="text858-3"
     aria-label="R">
    <path
       id="path141"
       style="fill:#bf2828;fill-opacity:1;stroke:none;stroke-width:16;stroke-linejoin:round;stroke-miterlimit:4;stroke-dasharray:none;stroke-opacity:1;paint-order:stroke fill markers"
       d="m 307.6862,431.18215 q 6.7572,0 9.66112,-2.51301 2.95976,-2.513 2.95976,-8.26499 0,-5.69615 -2.95976,-8.15331 -2.90392,-2.45716 -9.66112,-2.45716 h -9.04682 v 21.38847 z m -9.04682,14.85466 v 31.55218 h -21.50016 v -83.37595 h 32.83661 q 16.47415,0 24.12486,5.52862 7.70655,5.52861 7.70655,17.47935 0,8.26499 -4.02081,13.57023 -3.96497,5.30523 -12.00658,7.81824 4.41172,1.0052 7.87408,4.57925 3.51821,3.51821 7.09226,10.72216 l 11.67152,23.6781 h -22.89628 l -10.16371,-20.71834 q -3.07145,-6.25459 -6.25459,-8.54422 -3.1273,-2.28962 -8.37669,-2.28962 z" />
  </g>
  <g
     style="font-style:normal;font-variant:normal;font-weight:900;font-stretch:normal;font-size:114.37px;line-height:21.4443px;font-family:'Inter UI';-inkscape-font-specification:'Inter UI Heavy';font-variant-ligatures:normal;font-variant-caps:normal;font-variant-numeric:normal;font-feature-settings:normal;text-align:center;letter-spacing:0px;word-spacing:0px;writing-mode:lr-tb;text-anchor:middle;fill:#757575;fill-opacity:1;stroke:none;stroke-width:16;stroke-linecap:butt;stroke-linejoin:round;stroke-miterlimit:4;stroke-dasharray:none;stroke-opacity:1;paint-order:stroke fill markers"
     id="text858-5-5"
     aria-label="N">
    <path
       id="path135"
       style="fill:#757575;fill-opacity:1;stroke:none;stroke-width:16;stroke-linejoin:round;stroke-miterlimit:4;stroke-dasharray:none;stroke-opacity:1;paint-order:stroke fill markers"
       d="m 276.44119,214.21304 h 24.01317 l 30.3236,57.18485 v -57.18485 h 20.38327 v 83.37595 h -24.01317 l -30.3236,-57.18484 v 57.18484 h -20.38327 z" />
  </g>
  <path
     sodipodi:nodetypes="cccc"
     inkscape:connector-curvature="0"
     id="path8902"
     d="M 136,504 149.69969,21.992597 136,8 Z"
     style="fill:#666666;stroke:none;stroke-width:7.2702446px;stroke-linecap:butt;stroke-linejoin:miter;stroke-opacity:1" />
  <path
     sodipodi:nodetypes="cccc"
     inkscape:connector-curvature="0"
     id="path8904"
     d="M 149.69969,21.992597 376,8 H 136 Z"
     style="fill:#808080;stroke:none;stroke-width:7.2702446px;stroke-linecap:butt;stroke-linejoin:miter;stroke-opacity:1" />
  <path
     sodipodi:nodetypes="cccc"
     inkscape:connector-curvature="0"
     id="path8906"
     d="M 376,8 358.70997,486.93461 376,504 Z"
     style="fill:#1a1a1a;stroke:none;stroke-width:7.2702446px;stroke-linecap:butt;stroke-linejoin:miter;stroke-opacity:1" />
  <path
     sodipodi:nodetypes="cccc"
     inkscape:connector-curvature="0"
     id="path8908"
     d="M 358.70997,486.93461 136,504 h 240 z"
     style="fill:#333333;stroke:none;stroke-width:7.2702446px;stroke-linecap:butt;stroke-linejoin:miter;stroke-opacity:1" />
  <path
     sodipodi:nodetypes="ccccc"
     inkscape:connector-curvature="0"
     id="rect817"
     d="m 160,32 h 58 v 447 h -58 z"
     style="opacity:1;fill:#d8d8d8;fill-opacity:1;stroke:#000000;stroke-width:16;stroke-linecap:butt;stroke-linejoin:round;stroke-miterlimit:4;stroke-dasharray:none;stroke-opacity:1;paint-order:markers stroke fill" />
  <g
     style="font-style:normal;font-variant:normal;font-weight:900;font-stretch:normal;font-size:114.37px;line-height:21.4443px;font-family:'Inter UI';-inkscape-font-specification:'Inter UI Heavy';font-variant-ligatures:normal;font-variant-caps:normal;font-variant-numeric:normal;font-feature-settings:normal;text-align:center;letter-spacing:0px;word-spacing:0px;writing-mode:lr-tb;text-anchor:middle;fill:#43a743;fill-opacity:1;stroke:#000000;stroke-width:16;stroke-linecap:butt;stroke-linejoin:round;stroke-miterlimit:4;stroke-dasharray:none;stroke-opacity:1;paint-order:stroke fill markers"
     id="text858-8"
     aria-label="D">
    <path
       id="path132"
       style="fill:#43a743;fill-opacity:1;stroke:#000000;stroke-width:16;stroke-linejoin:round;stroke-miterlimit:4;stroke-dasharray:none;stroke-opacity:1;paint-order:stroke fill markers"
       d="m 298.44396,50.463814 v 50.874406 h 7.70655 q 13.17932,0 20.10404,-6.533816 6.98057,-6.533815 6.98057,-18.987154 0,-12.397495 -6.92472,-18.875465 -6.92473,-6.477971 -20.15989,-6.477971 z M 276.9438,34.213044 h 22.67289 q 18.98716,0 28.25736,2.736384 9.32604,2.68054 15.97154,9.15851 5.86368,5.640302 8.71176,13.011785 2.84807,7.371483 2.84807,16.697527 0,9.437732 -2.84807,16.86506 -2.84808,7.37148 -8.71176,13.01179 -6.70135,6.47797 -16.08323,9.21435 -9.38189,2.68054 -28.14567,2.68054 H 276.9438 Z" />
  </g>
  <g
     style="font-style:normal;font-variant:normal;font-weight:900;font-stretch:normal;font-size:114.37px;line-height:21.4443px;font-family:'Inter UI';-inkscape-font-specification:'Inter UI Heavy';font-variant-ligatures:normal;font-variant-caps:normal;font-variant-numeric:normal;font-feature-settings:normal;text-align:center;letter-spacing:0px;word-spacing:0px;writing-mode:lr-tb;text-anchor:middle;fill:#43a743;fill-opacity:1;stroke:none;stroke-width:16;stroke-linecap:butt;stroke-linejoin:round;stroke-miterlimit:4;stroke-dasharray:none;stroke-opacity:1;paint-order:stroke fill markers"
     id="text858-8-1"
     aria-label="D">
    <path
       id="path129"
       style="fill:#43a743;fill-opacity:1;stroke:none;stroke-width:16;stroke-linejoin:round;stroke-miterlimit:4;stroke-dasharray:none;stroke-opacity:1;paint-order:stroke fill markers"
       d="m 298.44396,50.463814 v 50.874406 h 7.70655 q 13.17932,0 20.10404,-6.533816 6.98057,-6.533815 6.98057,-18.987154 0,-12.397495 -6.92472,-18.875465 -6.92473,-6.477971 -20.15989,-6.477971 z M 276.9438,34.213044 h 22.67289 q 18.98716,0 28.25736,2.736384 9.32604,2.68054 15.97154,9.15851 5.86368,5.640302 8.71176,13.011785 2.84807,7.371483 2.84807,16.697527 0,9.437732 -2.84807,16.86506 -2.84808,7.37148 -8.71176,13.01179 -6.70135,6.47797 -16.08323,9.21435 -9.38189,2.68054 -28.14567,2.68054 H 276.9438 Z" />
  </g>
  <path
     inkscape:connector-curvature="0"
     id="path1629"
     d="M 404.914,6.4116129 A 14.260631,14.260631 0 0 0 388.99558,22.54784 l 4.11457,29.195582 a 14.260631,14.260631 0 0 0 9.53753,11.519517 l 19.48535,6.603335 1.46944,2.390582 -0.49313,0.138084 A 14.260631,14.260631 0 0 0 416.971,96.333077 l 42.31629,41.330003 a 14.260631,14.260631 0 0 0 23.32391,-5.2312 L 504.50075,73.535357 A 14.260631,14.260631 0 0 0 487.8601,54.687439 l -6.79212,1.604016 -16.30584,-26.440193 a 14.260631,14.260631 0 0 0 -7.55993,-6.024158 L 407.68854,7.0514779 a 14.260631,14.260631 0 0 0 -2.77453,-0.6398635 z"
     style="fill:#000000;stroke:none;stroke-width:1.95227766px;stroke-linecap:butt;stroke-linejoin:miter;stroke-opacity:1" />
  <path
     inkscape:connector-curvature="0"
     id="path1137-0"
     d="m 56.932692,355.43943 a 14.820476,14.820476 0 0 0 -12.099,7.15622 l -33.70435,55.93168 a 14.820476,14.820476 0 0 0 13.36371,22.45907 l 7.24042,-0.33736 11.55096,30.14211 a 14.820476,14.820476 0 0 0 6.55538,7.60925 l 47.31044,26.68509 a 14.820476,14.820476 0 0 0 22.090148,-12.2151 l 1.44387,-30.60568 a 14.820476,14.820476 0 0 0 -7.53552,-13.6061 l -18.622758,-10.49669 -1.03284,-2.74043 0.52698,-0.041 A 14.820476,14.820476 0 0 0 104.90712,412.1205 L 69.664052,361.75343 a 14.820476,14.820476 0 0 0 -12.73135,-6.31312 z"
     style="fill:#000000;stroke:none;stroke-width:2.02892017px;stroke-linecap:butt;stroke-linejoin:miter;stroke-opacity:1" />
  <path
     inkscape:connector-curvature="0"
     style="fill:#00ccff;stroke:none;stroke-width:2.27424431px;stroke-linecap:butt;stroke-linejoin:miter;stroke-opacity:1"
     d="m 445.61833,80.94132 -18.69316,5.199365 42.31672,41.325495 21.88218,-58.898509 -16.80545,3.973158 -21.7073,-35.200397 -49.5047,-16.7771 4.10921,29.203602 24.37375,8.253435 z"
     id="path4715" />
  <path
     inkscape:connector-curvature="0"
     style="fill:#55ddff;stroke:none;stroke-width:2.27424431px;stroke-linecap:butt;stroke-linejoin:miter;stroke-opacity:1"
     d="m 403.10662,20.563332 10.76931,11.479737 38.73539,5.297363 z"
     id="path4717" />
  <path
     inkscape:connector-curvature="0"
     style="fill:#aaeeff;stroke:none;stroke-width:2.27424431px;stroke-linecap:butt;stroke-linejoin:miter;stroke-opacity:1"
     d="m 413.87593,32.043069 -6.6601,17.723865 -4.10921,-29.203602 z"
     id="path4719" />
  <path
     inkscape:connector-curvature="0"
     style="fill:#55ddff;stroke:none;stroke-width:2.27424431px;stroke-linecap:butt;stroke-linejoin:miter;stroke-opacity:1"
     d="m 474.31862,72.540829 7.3756,4.286488 9.42985,-8.259646 z"
     id="path4721" />
  <path
     inkscape:connector-curvature="0"
     style="fill:#00aad4;stroke:none;stroke-width:2.27424431px;stroke-linecap:butt;stroke-linejoin:miter;stroke-opacity:1"
     d="m 491.12407,68.567671 -21.88218,58.898509 0.21552,-24.89554 z"
     id="path4725" />
  <path
     inkscape:connector-curvature="0"
     style="fill:#0088aa;stroke:none;stroke-width:2.27424431px;stroke-linecap:butt;stroke-linejoin:miter;stroke-opacity:1"
     d="m 435.94643,53.819884 -28.73034,-4.054626 24.37374,8.253447 z"
     id="path4731" />
  <path
     inkscape:connector-curvature="0"
     style="fill:#00ccff;fill-opacity:1;stroke:none;stroke-width:2.36352658px;stroke-linecap:butt;stroke-linejoin:miter;stroke-opacity:1"
     d="m 72.664342,422.3179 20.0925,-1.70288 -35.24028,-50.3659 -33.70961,55.92466 17.92818,-0.81499 15.37587,40.13423 47.316558,26.6848 1.43825,-30.61535 -23.297658,-13.13169 z"
     id="path4715-0" />
  <path
     inkscape:connector-curvature="0"
     style="fill:#80e6ff;fill-opacity:1;stroke:none;stroke-width:2.36352658px;stroke-linecap:butt;stroke-linejoin:miter;stroke-opacity:1"
     d="m 63.771122,459.9656 -22.03599,-34.60681 15.37587,40.13423 z"
     id="path4719-8" />
  <path
     inkscape:connector-curvature="0"
     style="fill:#0088aa;fill-opacity:1;stroke:none;stroke-width:2.36352658px;stroke-linecap:butt;stroke-linejoin:miter;stroke-opacity:1"
     d="m 105.86581,461.56247 -1.43825,30.61535 -6.649478,-10.40034 z"
     id="path4721-7" />
  <path
     inkscape:connector-curvature="0"
     style="fill:#80e6ff;fill-opacity:1;stroke:none;stroke-width:2.36352658px;stroke-linecap:butt;stroke-linejoin:miter;stroke-opacity:1"
     d="m 23.806952,426.17378 33.70961,-55.92466 3.10078,18.40845 z"
     id="path4725-1" />
  <path
     inkscape:connector-curvature="0"
     style="fill:#00aad4;fill-opacity:1;stroke:none;stroke-width:2.36352658px;stroke-linecap:butt;stroke-linejoin:miter;stroke-opacity:1"
     d="m 72.664342,422.3179 20.0925,-1.70288 -9.93625,-5.94327 z"
     id="path4727-7" />
  <path
     inkscape:connector-curvature="0"
     style="fill:#0088aa;fill-opacity:1;stroke:none;stroke-width:2.36352658px;stroke-linecap:butt;stroke-linejoin:miter;stroke-opacity:1"
     d="m 72.664342,422.3179 4.64415,29.56199 5.25966,-3.44911 z"
     id="path4729-2" />
  <path
     inkscape:connector-curvature="0"
     style="fill:#00aad4;fill-opacity:1;stroke:none;stroke-width:2.36352658px;stroke-linecap:butt;stroke-linejoin:miter;stroke-opacity:1"
     d="m 57.111002,465.49302 40.66708,16.28446 6.649478,10.40034 z"
     id="path4731-7" />
  <path
     inkscape:connector-curvature="0"
     style="fill:#00aad4;fill-opacity:1;stroke:none;stroke-width:2.36352658px;stroke-linecap:butt;stroke-linejoin:miter;stroke-opacity:1"
     d="m 23.806952,426.17378 17.92818,-0.81499 -9.17771,-3.45673 z"
     id="path4727-7-4" />
  <path
     inkscape:connector-curvature="0"
     id="path4721-4"
     d="m 426.92521,86.140401 12.51215,-0.272076 6.18097,-4.927005 z"
     style="fill:#55ddff;stroke:none;stroke-width:2.27424431px;stroke-linecap:butt;stroke-linejoin:miter;stroke-opacity:1" />
</svg>
